<svg aria-hidden="true" style="position: absolute; width: 0; height: 0; overflow: hidden;" version="1.1" xmlns="http://www.w3.org/2000/svg" xmlns:xlink="http://www.w3.org/1999/xlink">
<defs>
<symbol id="icon-tabledecoration" viewBox="0 0 33 32">
<path d="M29.694 0.004c-0.845 0-1.59 0.412-2.065 1.039h-21.847c-0.474-0.627-1.219-1.039-2.065-1.039-1.432 0-2.598 1.165-2.598 2.598s1.165 2.598 2.598 2.598c0.845 0 1.59-0.412 2.065-1.039h0.533v22.34c0 0.209 0.125 0.398 0.318 0.479l9.871 4.156c0.064 0.027 0.133 0.041 0.202 0.041s0.137-0.013 0.201-0.041l9.871-4.156c0.193-0.081 0.318-0.27 0.318-0.479v-22.34h0.533c0.474 0.627 1.219 1.039 2.065 1.039 1.432 0 2.598-1.165 2.598-2.598s-1.165-2.598-2.598-2.598zM27.149 3.122h-20.886c0.034-0.168 0.052-0.342 0.052-0.519s-0.018-0.352-0.052-0.519h20.886c-0.034 0.168-0.052 0.342-0.052 0.519s0.018 0.352 0.052 0.519z">"</path>
</symbol>
<symbol id="icon-place" viewBox="0 0 27 32">
<path d="M0.297 26.855v-25.981l25.918-0.526-1.348 27.087-12.448 4.25-12.123-4.829z"></path>
</symbol>
<symbol id="icon-place-first" viewBox="0 0 58 58">
<path d="M0.602905 45.7853V2.21043L57.6029 0.890869L54.6392 47.238L27.2639 57.8909L0.602905 45.7853Z"/>
</symbol>
<symbol id="icon-third" viewBox="0 0 27 32">
<path d="M23.698 7.31c-0.674 0-1.268 0.324-1.646 0.817h-17.416c-0.378-0.493-0.972-0.817-1.646-0.817-1.142 0-2.071 0.916-2.071 2.042s0.929 2.042 2.071 2.042c0.674 0 1.268-0.324 1.646-0.817h0.75l-0.487 17.241c0 0.164 0.1 0.313 0.253 0.377l8.031 3.753c0.051 0.021 0.106 0.032 0.161 0.032s0.109-0.011 0.161-0.032l8.194-3.429c0.154-0.064 0.253-0.212 0.253-0.377l-0.649-17.565h0.75c0.378 0.493 0.972 0.817 1.646 0.817 1.142 0 2.071-0.916 2.071-2.042s-0.929-2.042-2.071-2.042zM21.669 9.761h-16.65c0.027-0.132 0.042-0.269 0.042-0.408s-0.015-0.277-0.042-0.408h16.65c-0.027 0.132-0.042 0.269-0.042 0.408s0.014 0.277 0.042 0.408z"></path>
<path d="M17.098 4.028c0.468 0.108 0.809 0.54 0.809 1.043 0 0.594-0.486 1.061-1.061 1.061-0.18 0-0.342-0.036-0.486-0.126-0.090-0.054-0.18-0.108-0.252-0.18-0.126 0.126-0.288 0.216-0.45 0.252-0.090 0.018-0.18 0.036-0.288 0.036-0.594 0-1.061-0.486-1.061-1.061s0.468-1.043 1.043-1.061l-1.961-3.867-1.961 3.867c0.576 0.018 1.043 0.486 1.043 1.061 0 0.594-0.486 1.061-1.061 1.061-0.090 0-0.198-0.018-0.288-0.036-0.18-0.054-0.324-0.144-0.45-0.252-0.072 0.072-0.162 0.126-0.252 0.18-0.144 0.072-0.324 0.126-0.486 0.126-0.594 0-1.061-0.486-1.061-1.061 0-0.504 0.342-0.917 0.809-1.043l-1.673-2.374v6.26h10.738v-6.26l-1.655 2.374zM18.015 6.744c0.144 0 0.252 0.108 0.252 0.252s-0.108 0.252-0.252 0.252c-0.144 0-0.252-0.108-0.252-0.252s0.108-0.252 0.252-0.252zM16.846 6.744c0.144 0 0.252 0.108 0.252 0.252 0 0.090-0.054 0.18-0.126 0.216-0.036 0.018-0.072 0.036-0.126 0.036-0.144 0-0.252-0.108-0.252-0.252 0-0.108 0.054-0.18 0.144-0.234 0.036 0 0.072-0.018 0.108-0.018zM15.695 6.744c0.144 0 0.252 0.108 0.252 0.252s-0.108 0.252-0.252 0.252c-0.144 0-0.252-0.108-0.252-0.252s0.108-0.252 0.252-0.252zM14.544 6.744c0.144 0 0.252 0.108 0.252 0.252s-0.108 0.252-0.252 0.252c-0.144 0-0.252-0.108-0.252-0.252s0.108-0.252 0.252-0.252zM13.392 6.744c0.144 0 0.252 0.108 0.252 0.252s-0.108 0.252-0.252 0.252c-0.144 0-0.252-0.108-0.252-0.252s0.108-0.252 0.252-0.252zM12.223 6.744c0.144 0 0.252 0.108 0.252 0.252s-0.108 0.252-0.252 0.252c-0.144 0-0.252-0.108-0.252-0.252s0.126-0.252 0.252-0.252zM11.072 6.744c0.144 0 0.252 0.108 0.252 0.252s-0.108 0.252-0.252 0.252c-0.144 0-0.252-0.108-0.252-0.252s0.108-0.252 0.252-0.252zM9.921 6.744c0.036 0 0.072 0.018 0.108 0.018 0.090 0.036 0.144 0.126 0.144 0.234 0 0.144-0.108 0.252-0.252 0.252-0.036 0-0.090-0.018-0.126-0.036-0.072-0.036-0.126-0.126-0.126-0.216 0-0.144 0.108-0.252 0.252-0.252zM8.77 6.744c0.144 0 0.252 0.108 0.252 0.252s-0.108 0.252-0.252 0.252c-0.144 0-0.252-0.108-0.252-0.252s0.108-0.252 0.252-0.252z"></path>
<path d="M22.631 27.802c0.348-0.382 0.71-0.738 1.25-0.904 0.18-0.073 0.37-0.129 0.558-0.185v0c0.255-0.076 0.507-0.151 0.731-0.265 1.074-0.446 1.107-1.604 0.091-2.781-0.010 0.1-0.019 0.201 0.008 0.328-0.035 0.565-0.311 1.007-0.745 1.279-0.188 0.131-0.461 0.144-0.729-0.107-0.159-0.171-0.345-0.468-0.348-0.632 0.005-0.243 0.091-0.471 0.166-0.67 0.007-0.018 0.013-0.035 0.020-0.053 0.167-0.407 0.573-0.566 0.994-0.73h0c0.091-0.036 0.183-0.072 0.274-0.11 0.887-0.315 1.446-0.871 1.665-1.732 0.33-1.208-0.539-2.706-1.465-3.602 0.020 0.043 0.038 0.083 0.055 0.12l0.001 0.001c0.080 0.176 0.136 0.297 0.206 0.393 0.507 0.803 0.463 1.469 0.286 2.091-0.163 0.686-1.258 0.741-1.999 0.142-0.704-0.572-0.892-1.461-0.401-1.907 0.421-0.335 0.856-0.606 1.291-0.878 0.705-0.449 0.87-1.563 0.227-2.573-0.004 0.181 0.020 0.357 0.045 0.544v0c0.012 0.086 0.023 0.174 0.033 0.266 0.071 0.482-0.136 0.813-0.611 0.894l-0.831 0.141c-0.447 0.076-0.834 0.217-1.157 0.415l0.387 10.514zM4.58 17.324l-0.295 10.495c0 0.081 0.024 0.159 0.068 0.224-0.031-0.034-0.062-0.068-0.093-0.103-0.388-0.432-0.77-0.857-1.375-1.043-0.18-0.073-0.37-0.129-0.557-0.185h-0c-0.255-0.076-0.507-0.151-0.731-0.265-1.074-0.446-1.107-1.604-0.091-2.781v0c0.010 0.1 0.019 0.201-0.008 0.328 0.035 0.565 0.311 1.007 0.745 1.279 0.188 0.131 0.461 0.144 0.729-0.107 0.159-0.171 0.344-0.468 0.348-0.632-0.005-0.243-0.091-0.471-0.166-0.67-0.007-0.018-0.013-0.035-0.020-0.053-0.167-0.407-0.573-0.566-0.994-0.73v0c-0.091-0.036-0.183-0.072-0.274-0.11-0.887-0.315-1.446-0.871-1.665-1.732-0.33-1.208 0.539-2.706 1.465-3.602-0.020 0.043-0.038 0.084-0.056 0.122-0.080 0.176-0.136 0.297-0.206 0.394-0.507 0.803-0.463 1.469-0.286 2.091 0.163 0.686 1.258 0.741 1.999 0.142 0.704-0.572 0.892-1.461 0.401-1.907-0.421-0.335-0.856-0.606-1.291-0.878-0.705-0.449-0.87-1.563-0.227-2.573 0.004 0.181-0.020 0.357-0.045 0.544-0.012 0.086-0.024 0.174-0.033 0.266-0.071 0.482 0.136 0.813 0.611 0.894l0.831 0.141c0.474 0.081 0.881 0.234 1.215 0.451zM4.438 28.137c0.017 0.018 0.033 0.036 0.050 0.054 0.011 0.011 0.040 0.018 0.084 0.023l-0.034-0.018c-0.037-0.015-0.070-0.035-0.1-0.059z"></path>
</symbol>
<symbol id="icon-first" viewBox="0 0 25 32">
<path d="M22.2 8.998c-0.627 0-1.18 0.302-1.532 0.761h-16.215c-0.352-0.459-0.905-0.761-1.532-0.761-1.063 0-1.928 0.854-1.928 1.903s0.865 1.903 1.928 1.903c0.627 0 1.18-0.302 1.532-0.761h0.698l-0.453 16.064c0 0.153 0.093 0.291 0.236 0.351l7.478 3.496c0.048 0.020 0.099 0.030 0.15 0.030s0.102-0.010 0.15-0.030l7.629-3.195c0.143-0.059 0.236-0.198 0.236-0.351l-0.605-16.365h0.698c0.352 0.459 0.905 0.761 1.532 0.761 1.063 0 1.928-0.854 1.928-1.903s-0.865-1.903-1.928-1.903zM20.311 11.281h-15.502c0.025-0.123 0.039-0.25 0.039-0.381s-0.014-0.258-0.039-0.381h15.502c-0.025 0.123-0.039 0.25-0.039 0.381s0.013 0.258 0.039 0.381z"></path>
<path d="M11.677 7.171l0.261-0.207-0.354-3.556c-0.466 0.094-0.894 0.245-1.266 0.452l1.229 3.387c0.037 0 0.093-0.038 0.13-0.075z"></path>
<path d="M13.744 7.171c0.037 0.038 0.093 0.056 0.13 0.094l1.229-3.387c-0.391-0.207-0.819-0.357-1.266-0.452l-0.354 3.537 0.261 0.207z"></path>
<path d="M12.086 1.996c0 0.075 0.019 0.169 0.037 0.226 0.093 0.226 0.317 0.395 0.577 0.395s0.484-0.169 0.577-0.395c0.037-0.075 0.037-0.151 0.037-0.226 0-0.226-0.112-0.414-0.279-0.527l0.689 0.132v-0.866l-0.745 0.132 0.13-0.753h-0.838l0.13 0.753-0.745-0.132v0.847l0.708-0.113c-0.168 0.113-0.279 0.301-0.279 0.527z"></path>
<path d="M11.9 2.636l0.075 0.715 0.335 3.33 0.372-0.282 0.037-0.038 0.019 0.038 0.372 0.282 0.335-3.33 0.075-0.715h-1.62z"></path>
<path d="M8.25 7.058l0.391 0.226c0.112 0.056 0.242 0 0.279-0.019v-1.148l1.546 1.091c0.075 0.056 0.168 0.094 0.279 0.132 0.149 0.038 0.298 0.056 0.428 0.038l-1.21-3.293-0.521-1.449c0 0-1.881 0.169-1.881 1.882 0 1.072 0.335 1.957 0.596 2.484l0.093 0.056z"></path>
<path d="M14.694 7.34c0.093-0.038 0.186-0.075 0.279-0.132l1.546-1.091v1.167c0.019 0.019 0.149 0.075 0.261 0.019l0.391-0.226 0.112-0.056c0.261-0.527 0.596-1.411 0.596-2.484 0-1.712-1.881-1.881-1.881-1.881l-0.54 1.43-1.192 3.293c0.149 0 0.298 0 0.428-0.038z"></path>
<path d="M8.437 8.996h-0.391v1.054h9.33v-1.054h-8.939z"></path>
<path d="M17.58 7.284l-0.466 0.263-0.13 0.075c-0.223 0.132-0.503 0.094-0.689-0.038-0.112-0.075-0.186-0.188-0.186-0.32v-0.395l-0.577 0.433-0.335 0.226c-0.298 0.207-0.708 0.282-1.080 0.226-0.019 0-0.056-0.019-0.075-0.019-0.205-0.038-0.391-0.132-0.54-0.245l-0.447-0.339-0.354-0.263-0.335 0.263-0.447 0.339c-0.149 0.132-0.354 0.207-0.54 0.245-0.019 0-0.056 0.019-0.075 0.019-0.372 0.056-0.764-0.019-1.080-0.226l-0.335-0.226-0.596-0.414v0.395c0 0.132-0.075 0.245-0.186 0.32-0.186 0.132-0.466 0.169-0.689 0.038l-0.13-0.075-0.447-0.282-0.689-0.414 0.763 1.486h9.665l0.708-1.486-0.708 0.414z"></path>
<path d="M21.004 29.376c3.169 0.489 3.693-2.552 3.813-3.248v0c0.011-0.066 0.019-0.111 0.025-0.13 0.161-0.5 0.135-0.986-0.352-1.4 0.003 0.013 0.006 0.026 0.009 0.038 0.002 0.009 0.004 0.019 0.006 0.028 0.038 0.161 0.063 0.271 0.054 0.398 0.037 0.453-0.258 0.8-0.675 0.849-0.384 0.060-0.639-0.169-0.731-0.677-0.027-0.098-0.026-0.21-0.025-0.309 0-0.023 0-0.046 0-0.067 0.017-0.49 0.29-0.829 0.582-1.192l0.035-0.043c0.687-0.772 0.889-1.626 0.485-2.638-0.082-0.207-0.026-0.468 0.027-0.708v0c0.012-0.053 0.023-0.105 0.033-0.156-0-0.061 0.042-0.119 0.088-0.181 0.038-0.051 0.077-0.104 0.096-0.164 0.076-0.123 0.108-0.223 0.151-0.356v0c-0.634 0.494-1.080 1.086-1.019 1.915 0.016 0.63-0.255 1.131-0.769 1.48-0.284 0.203-0.626 0.129-0.925-0.188-0.244-0.262-0.256-0.45-0.006-0.774 0.118-0.162 0.25-0.32 0.385-0.48 0.162-0.193 0.327-0.39 0.475-0.604 0.030-0.045 0.060-0.090 0.091-0.135v-0c0.259-0.384 0.532-0.789 0.646-1.245 0.244-1.098-0.093-2.089-0.782-3.010-0.178-0.241-0.29-0.572-0.281-0.826 0.027-0.313 0.114-0.606 0.207-0.919v-0c0.045-0.153 0.092-0.311 0.134-0.478-0.056 0.091-0.117 0.18-0.177 0.268v0c-0.102 0.149-0.2 0.294-0.269 0.435-0.27 0.612-0.496 1.201-0.293 1.928s0.1 1.503-0.236 2.204c-0.148 0.311-0.477 0.517-0.853 0.57l0.127 9.586c0 0.085-0.029 0.165-0.078 0.23zM3.993 19.539c-0.328-0.075-0.607-0.27-0.74-0.549-0.335-0.701-0.439-1.476-0.236-2.204s-0.023-1.316-0.293-1.928c-0.068-0.14-0.167-0.285-0.269-0.435v0c-0.060-0.088-0.12-0.177-0.177-0.268 0.042 0.167 0.089 0.325 0.134 0.478v0c0.093 0.314 0.18 0.607 0.207 0.919 0.009 0.255-0.103 0.585-0.281 0.826-0.689 0.921-1.026 1.912-0.782 3.010 0.114 0.456 0.388 0.862 0.646 1.245 0.031 0.045 0.061 0.090 0.091 0.135 0.148 0.213 0.314 0.41 0.475 0.604 0.134 0.16 0.266 0.318 0.385 0.48 0.25 0.324 0.238 0.512-0.006 0.774-0.299 0.317-0.641 0.39-0.925 0.188-0.514-0.349-0.785-0.85-0.769-1.48 0.061-0.829-0.385-1.42-1.019-1.915h0c0.043 0.133 0.075 0.233 0.151 0.356 0.019 0.060 0.059 0.113 0.096 0.164 0.046 0.062 0.088 0.12 0.088 0.181 0.010 0.050 0.021 0.102 0.033 0.156 0.052 0.24 0.109 0.501 0.027 0.708-0.404 1.013-0.201 1.867 0.485 2.638l0.035 0.043c0.292 0.363 0.565 0.703 0.582 1.192-0 0.021 0 0.044 0 0.067 0.001 0.098 0.002 0.211-0.025 0.309-0.092 0.508-0.347 0.737-0.731 0.677-0.417-0.049-0.712-0.396-0.675-0.849-0.009-0.127 0.017-0.237 0.054-0.398 0.005-0.021 0.010-0.043 0.015-0.066-0.487 0.414-0.513 0.901-0.352 1.4 0.006 0.019 0.014 0.064 0.025 0.13 0.124 0.721 0.683 3.961 4.17 3.18l-0.228-0.113c-0.142-0.059-0.235-0.198-0.235-0.351l0.042-9.306z"></path>
</symbol>
<symbol id="icon-second" viewBox="0 0 28 32">
<path d="M23.997 7.171c-0.673 0-1.266 0.326-1.643 0.822h-17.388c-0.378-0.496-0.97-0.822-1.643-0.822-1.14 0-2.067 0.921-2.067 2.054s0.927 2.054 2.067 2.054c0.673 0 1.266-0.326 1.643-0.822h0.748l-0.486 17.338c0 0.165 0.1 0.315 0.253 0.379l8.018 3.774c0.051 0.021 0.106 0.032 0.16 0.032s0.109-0.011 0.16-0.032l8.18-3.449c0.154-0.064 0.253-0.214 0.253-0.379l-0.648-17.664h0.748c0.377 0.496 0.97 0.822 1.643 0.822 1.14 0 2.067-0.921 2.067-2.054s-0.927-2.054-2.067-2.054zM21.972 9.636h-16.623c0.027-0.133 0.042-0.27 0.042-0.411s-0.014-0.278-0.042-0.411h16.623c-0.027 0.133-0.042 0.27-0.042 0.411s0.015 0.278 0.042 0.411z"></path>
<path d="M17.922 3.196l0.443 0.926c0.148 0.314 0.066 0.694-0.213 0.893l-1.28 1.025c-0.115 0.099-0.246 0.149-0.377 0.165l0.131-1.124 0.656-0.744-0.722-1.306-0.984 1.124 0.476 0.86-0.131 1.124c-0.115-0.050-0.213-0.132-0.295-0.248l-0.919-1.19c-0.197-0.264-0.213-0.612-0.016-0.876l0.788-1.124-1.788-2.529-1.805 2.529 0.788 1.124c0.18 0.264 0.18 0.628-0.016 0.876l-0.919 1.19c-0.082 0.099-0.18 0.182-0.295 0.248l-0.115-1.108 0.476-0.86-0.985-1.124-0.722 1.306 0.656 0.744 0.131 1.124c-0.131-0.033-0.263-0.083-0.377-0.165l-1.28-1.025c-0.263-0.215-0.361-0.595-0.213-0.893l0.443-0.926-1.739-1.703 1.017 5.141v0.512h9.894v-0.512l1.017-5.141-1.723 1.686zM13.689 2.237c0.213 0 0.377 0.165 0.377 0.38s-0.164 0.38-0.377 0.38c-0.213 0-0.377-0.165-0.377-0.38s0.164-0.38 0.377-0.38zM13.689 5.592c0.213 0 0.377 0.165 0.377 0.38s-0.164 0.38-0.377 0.38c-0.213 0-0.377-0.165-0.377-0.38-0.016-0.198 0.164-0.38 0.377-0.38z"></path>
<path d="M4.869 15.787l-0.277 9.846c-0.333-0.283-0.693-0.528-1.178-0.635-0.193-0.059-0.394-0.101-0.594-0.143v0c-0.271-0.057-0.54-0.114-0.78-0.21-1.15-0.363-1.252-1.48-0.258-2.68v0c0.016 0.096 0.032 0.193 0.011 0.317 0.069 0.544 0.384 0.954 0.854 1.189 0.204 0.114 0.491 0.11 0.757-0.149 0.156-0.175 0.333-0.474 0.327-0.632-0.020-0.234-0.123-0.449-0.213-0.637-0.008-0.017-0.016-0.033-0.024-0.050-0.198-0.383-0.632-0.511-1.083-0.643h-0c-0.098-0.029-0.196-0.058-0.293-0.089-0.946-0.249-1.563-0.751-1.842-1.568-0.415-1.146 0.406-2.648 1.322-3.572-0.018 0.043-0.035 0.083-0.051 0.121v0c-0.074 0.175-0.124 0.296-0.193 0.393-0.484 0.807-0.398 1.448-0.178 2.038 0.211 0.652 1.359 0.636 2.099 0.012 0.703-0.596 0.847-1.468 0.308-1.867-0.46-0.297-0.931-0.532-1.401-0.767-0.763-0.389-1.001-1.455-0.388-2.471 0.015 0.175 0 0.346-0.015 0.528v0c-0.007 0.084-0.014 0.17-0.019 0.259-0.046 0.47 0.19 0.777 0.691 0.825l0.878 0.084c0.617 0.059 1.134 0.231 1.538 0.502zM22.911 25.904c0.426-0.388 0.847-0.766 1.483-0.906 0.193-0.059 0.394-0.101 0.594-0.143 0.271-0.057 0.54-0.114 0.78-0.21 1.15-0.363 1.252-1.48 0.258-2.68-0.016 0.096-0.032 0.193-0.011 0.317-0.069 0.544-0.384 0.954-0.854 1.189-0.204 0.114-0.491 0.11-0.757-0.149-0.156-0.175-0.333-0.474-0.327-0.632 0.020-0.234 0.123-0.449 0.213-0.637 0.008-0.017 0.016-0.033 0.024-0.050 0.198-0.383 0.632-0.511 1.082-0.643 0.098-0.029 0.196-0.058 0.293-0.089 0.946-0.249 1.563-0.751 1.842-1.568 0.416-1.146-0.406-2.648-1.322-3.572 0.019 0.043 0.035 0.083 0.051 0.121v0c0.074 0.175 0.124 0.296 0.193 0.393 0.484 0.807 0.398 1.448 0.178 2.038-0.211 0.652-1.359 0.636-2.099 0.012-0.703-0.596-0.847-1.468-0.308-1.867 0.46-0.297 0.931-0.532 1.402-0.767 0.763-0.389 1.001-1.455 0.388-2.471-0.015 0.175-0 0.346 0.015 0.528 0.007 0.084 0.015 0.17 0.019 0.259 0.046 0.47-0.19 0.777-0.691 0.825l-0.878 0.084c-0.837 0.080-1.49 0.369-1.926 0.828l0.361 9.791z"></path>
</symbol>
<symbol id="icon-btn" viewBox="0 0 241 51">
<path d="M1.06498 17.572C-0.0825377 8.60509 6.90356 0.667969 15.9436 0.667969H225.126C234.418 0.667969 241.475 9.03083 239.912 18.1909L236.499 38.191C235.27 45.3975 229.024 50.668 221.713 50.668H18.5031C10.9549 50.668 4.58256 45.0591 3.62442 37.572L1.06498 17.572Z"/>
</symbol>
<symbol id="icon-bottom" viewBox="0 0 185 110">
<path d="M174.381 2.23204L10.9834 1.29487C5.46737 1.26323 1.08418 5.92038 1.44977 11.4243L7.1436 97.1457C7.47108 102.076 11.5232 105.932 16.4635 106.015L173.463 108.646C178.742 108.735 183.08 104.503 183.122 99.2241L183.827 11.8084C183.869 6.55326 179.637 2.26218 174.381 2.23204Z" />
</symbol>
</defs>
</svg>
