<svg width="26" height="25" viewBox="0 0 26 25" xmlns="http://www.w3.org/2000/svg">
<path d="M23.1985 0.00323486C22.5381 0.00323486 21.9561 0.3251 21.5856 0.815009H4.51754C4.14697 0.3251 3.56493 0.00323486 2.9046 0.00323486C1.78556 0.00323486 0.875183 0.913657 0.875183 2.03265C0.875183 3.15164 1.78556 4.06206 2.9046 4.06206C3.56497 4.06206 4.14701 3.74019 4.51754 3.25028H4.93396V20.7031C4.93396 20.8662 5.0318 21.014 5.18234 21.0773L12.894 24.3239C12.9444 24.345 12.998 24.3556 13.0515 24.3556C13.1051 24.3556 13.1587 24.345 13.209 24.3239L20.9207 21.0773C21.0713 21.014 21.1691 20.8663 21.1691 20.7031V3.25028H21.5855C21.9561 3.74019 22.5381 4.06206 23.1984 4.06206C24.3174 4.06206 25.2278 3.15168 25.2278 2.03265C25.2279 0.913657 24.3176 0.00323486 23.1985 0.00323486ZM21.2102 2.43851H20.7633H5.33987H4.89301C4.91979 2.30742 4.93401 2.17144 4.93401 2.03265C4.93401 1.89385 4.91979 1.75787 4.89301 1.62678H21.2102C21.1834 1.75787 21.1692 1.89385 21.1692 2.03265C21.1692 2.17144 21.1833 2.30742 21.2102 2.43851Z" fill="#F7CA59"/>
</svg>
