<svg width="26" height="26" viewBox="0 0 26 26" fill="none" xmlns="http://www.w3.org/2000/svg">
<path d="M23.1985 0.983215C22.5381 0.983215 21.9561 1.30508 21.5856 1.79499H4.51754C4.14697 1.30508 3.56493 0.983215 2.9046 0.983215C1.78556 0.983215 0.875183 1.89364 0.875183 3.01263C0.875183 4.13162 1.78556 5.04204 2.9046 5.04204C3.56497 5.04204 4.14701 4.72017 4.51754 4.23026H4.93396V21.6831C4.93396 21.8462 5.0318 21.994 5.18234 22.0573L12.894 25.3039C12.9444 25.325 12.998 25.3356 13.0515 25.3356C13.1051 25.3356 13.1587 25.325 13.209 25.3039L20.9207 22.0573C21.0713 21.994 21.1691 21.8462 21.1691 21.6831V4.23026H21.5855C21.9561 4.72017 22.5381 5.04204 23.1984 5.04204C24.3174 5.04204 25.2278 4.13166 25.2278 3.01263C25.2279 1.89364 24.3176 0.983215 23.1985 0.983215ZM21.2102 3.41849H20.7633H5.33987H4.89301C4.91979 3.2874 4.93401 3.15142 4.93401 3.01263C4.93401 2.87384 4.91979 2.73785 4.89301 2.60676H21.2102C21.1834 2.73785 21.1692 2.87384 21.1692 3.01263C21.1692 3.15142 21.1833 3.2874 21.2102 3.41849Z" fill="#D1D1D1"/>
</svg>
