<svg width="26" height="26" viewBox="0 0 26 26" fill="none" xmlns="http://www.w3.org/2000/svg">
<path d="M23.1985 0.882629C22.5381 0.882629 21.9561 1.20449 21.5856 1.6944H4.51754C4.14697 1.20449 3.56493 0.882629 2.9046 0.882629C1.78556 0.882629 0.875183 1.79305 0.875183 2.91204C0.875183 4.03103 1.78556 4.94145 2.9046 4.94145C3.56497 4.94145 4.14701 4.61959 4.51754 4.12968H4.93396V21.5825C4.93396 21.7456 5.0318 21.8934 5.18234 21.9567L12.894 25.2033C12.9444 25.2244 12.998 25.235 13.0515 25.235C13.1051 25.235 13.1587 25.2244 13.209 25.2033L20.9207 21.9567C21.0713 21.8934 21.1691 21.7457 21.1691 21.5825V4.12968H21.5855C21.9561 4.61959 22.5381 4.94145 23.1984 4.94145C24.3174 4.94145 25.2278 4.03108 25.2278 2.91204C25.2279 1.79305 24.3176 0.882629 23.1985 0.882629ZM21.2102 3.3179H20.7633H5.33987H4.89301C4.91979 3.18682 4.93401 3.05083 4.93401 2.91204C4.93401 2.77325 4.91979 2.63726 4.89301 2.50618H21.2102C21.1834 2.63726 21.1692 2.77325 21.1692 2.91204C21.1692 3.05083 21.1833 3.18682 21.2102 3.3179Z" fill="#E8C29F"/>
</svg>
